<svg width="90" height="91" viewBox="0 0 90 91" fill="none" xmlns="http://www.w3.org/2000/svg">
<g clip-path="url(#clip0_155_167)">
<path d="M90 0.5H0V90.5H90V0.5Z" fill="#DF714E"/>
<path d="M36.4537 61.5374H53.1031C53.1031 61.5374 61.6519 53.1041 61.321 42.1601C60.9914 31.2173 50.5378 24.5039 41.1846 24.5039C31.8327 24.5039 24.8996 47.5141 36.4537 61.5374Z" fill="#412E1F"/>
<path d="M67.8873 72.1245C64.8068 66.2925 45.0006 62.6322 45.0006 62.6322C45.0006 62.6322 25.1932 66.2918 22.1127 72.1245C19.836 80.2176 17.9305 90.5 17.9305 90.5H45.0006H72.0695C72.0695 90.5 70.7834 79.474 67.8873 72.1245Z" fill="#F1C9A5"/>
<path d="M45.0007 62.6322C45.0007 62.6322 64.8069 66.2918 67.8874 72.1245C70.7835 79.4747 72.0696 90.5 72.0696 90.5H45.0007V62.6322Z" fill="#E4B692"/>
<path d="M50.3926 50.7765H39.6081V68.8243H50.3926V50.7765Z" fill="#F1C9A5"/>
<path d="M50.3926 50.7765H45.0007V68.8243H50.3926V50.7765Z" fill="#E4B692"/>
<path opacity="0.1" d="M39.6081 59.139C40.5782 61.9228 44.4923 63.5198 47.3667 63.5198C48.407 63.5198 49.4181 63.346 50.3926 63.0258V50.7765H39.6081V59.139Z" fill="#DDAC8C"/>
<path d="M58.8644 39.3874C58.8644 28.1145 52.6575 21.7046 45.0006 21.7046C37.3426 21.7046 31.1357 28.1145 31.1357 39.3874C31.1357 50.6604 37.3426 59.8007 45.0006 59.8007C52.6575 59.8007 58.8644 50.6604 58.8644 39.3874Z" fill="#F1C9A5"/>
<path d="M56.7547 47.2032C54.2415 46.9232 52.5445 44.0451 52.9697 40.7772C53.3905 37.5067 55.7715 35.0799 58.2853 35.3573C60.7972 35.6354 62.4917 38.5129 62.0678 41.7833C61.6463 45.0537 59.2678 47.4788 56.7547 47.2032Z" fill="#E4B692"/>
<path d="M28.0311 41.7839C27.6065 38.5135 29.3016 35.6366 31.8123 35.3579C34.328 35.0804 36.709 37.5073 37.1304 40.7778C37.555 44.0457 35.8561 46.9232 33.3442 47.2038C30.8316 47.4787 28.4532 45.0537 28.0311 41.7839Z" fill="#F1C9A5"/>
<path d="M58.8644 39.3874C58.8644 28.1145 52.6575 21.7046 45.0007 21.7046V59.8007C52.6575 59.8007 58.8644 50.6604 58.8644 39.3874Z" fill="#E4B692"/>
<path d="M72.0695 90.5C72.0695 90.5 70.7834 79.474 67.8873 72.1244C66.1984 68.9254 59.4801 66.3824 53.7542 64.737L44.9795 71.6248L35.8523 64.8506C30.2164 66.4985 23.7631 68.9993 22.1121 72.1251C19.836 80.2176 17.9305 90.5 17.9305 90.5H45.0006H72.0695Z" fill="#21503E"/>
<path d="M39.4058 28.8146C41.7067 32.9683 47.4748 35.3343 51.6365 38.4552C58.9234 43.9172 55.63 55.9965 53.1032 61.5374C62.2596 56.2156 68.973 47.287 65.6045 32.8174C62.2366 18.3479 50.7383 12.1913 38.8447 17.3219C29.0564 14.7554 19.0105 29.6196 20.1681 43.0638C21.3257 56.5054 36.4538 61.5374 36.4538 61.5374C36.4538 61.5374 27.4308 41.5114 39.4058 28.8146Z" fill="#86572B"/>
<path d="M56.0979 65.4471C56.0979 65.4471 53.6536 64.2169 51.8381 64.2057C49.364 65.8456 44.9801 71.6242 44.9801 71.6242L47.4387 74.318C47.4387 74.318 54.6343 66.2602 56.0979 65.4471Z" fill="white"/>
<path d="M33.8624 65.4471C33.8624 65.4471 36.3067 64.2169 38.121 64.2057C40.5963 65.8456 44.9802 71.6242 44.9802 71.6242L42.5217 74.318C42.5217 74.318 35.3266 66.2602 33.8624 65.4471Z" fill="white"/>
<path d="M44.9801 71.6242C44.9801 71.6242 40.8364 76.1329 41.9921 79.3238C43.1472 82.5161 42.1572 86.8075 42.1572 86.8075L43.3843 86.5872C43.3843 86.5872 44.2886 82.9425 42.8462 78.8447C42.1696 76.9255 43.7896 73.1349 44.9801 71.6242Z" fill="white"/>
<path d="M44.9535 71.6242C44.9535 71.6242 42.8165 78.0378 45.1596 81.2225C47.5027 84.4073 48.2543 89.5323 48.2543 89.5323L49.3263 88.8787C49.3263 88.8787 48.7478 84.5047 45.7765 80.4032C44.385 78.4822 44.4247 73.7078 44.9535 71.6242Z" fill="white"/>
</g>
<defs>
<clipPath id="clip0_155_167">
<rect y="0.5" width="90" height="90" rx="45" fill="white"/>
</clipPath>
</defs>
</svg>
