<svg width="90" height="91" viewBox="0 0 90 91" fill="none" xmlns="http://www.w3.org/2000/svg">
<g clip-path="url(#clip0_269_5)">
<rect y="0.5" width="90" height="90" rx="43.7143" fill="white"/>
<g clip-path="url(#clip1_269_5)">
<path d="M92.5714 -4.64285H-2.57147V90.5H92.5714V-4.64285Z" fill="#AD1925"/>
<path d="M69.1957 71.0738C65.9378 64.9086 44.9998 61.0399 44.9998 61.0399C44.9998 61.0399 24.0619 64.9086 20.804 71.0738C18.3972 79.6295 16.3842 90.5 16.3842 90.5H44.9998H73.6155C73.6155 90.5 72.256 78.844 69.1957 71.0738Z" fill="#F1C9A5"/>
<path d="M44.9999 61.0399C44.9999 61.0399 65.9379 64.9086 69.1957 71.0738C72.256 78.844 73.6156 90.5 73.6156 90.5H44.9999V61.0399Z" fill="#E4B692"/>
<path d="M50.6999 48.5059H39.2992V67.585H50.6999V48.5059Z" fill="#F1C9A5"/>
<path d="M50.7006 48.5059H44.9999V67.585H50.7006V48.5059Z" fill="#E4B692"/>
<path opacity="0.1" d="M39.2997 57.347C40.3253 60.2899 44.463 61.9769 47.5017 61.9769C48.6014 61.9769 49.6703 61.7931 50.7004 61.4559V48.5059H39.2997V57.347Z" fill="#DDAC8C"/>
<path d="M59.6572 36.4668C59.6572 24.5496 53.0943 17.7735 45 17.7735C36.9056 17.7735 30.3427 24.5503 30.3427 36.4668C30.3427 52.496 36.9056 58.0458 45 58.0458C53.0943 58.0458 59.6572 51.8281 59.6572 36.4668Z" fill="#F1C9A5"/>
<path d="M57.4263 44.7304C54.7695 44.4522 52.9756 41.5894 53.4251 38.3394C53.8699 35.0869 56.387 32.6722 59.0444 32.9491C61.6999 33.226 63.4912 36.0868 63.043 39.3394C62.5968 42.5926 60.0825 45.0053 57.4263 44.7304Z" fill="#E4B692"/>
<path d="M27.0605 39.3401C26.6116 36.0875 28.4036 33.2266 31.0578 32.9497C33.7172 32.6728 36.2342 35.0882 36.6797 38.3401C37.1285 41.59 35.3326 44.4528 32.6772 44.7311C30.021 45.0053 27.5066 42.5926 27.0605 39.3401Z" fill="#F1C9A5"/>
<path d="M59.6571 36.4668C59.6571 24.5496 53.0942 17.7735 44.9999 17.7735V58.0458C53.0942 58.0458 59.6571 51.8281 59.6571 36.4668Z" fill="#E4B692"/>
<path d="M58.1847 46.4548C57.3966 48.6713 56.0627 51.3366 53.6519 51.3366C50.6402 51.3366 48.4847 48.8885 45.0294 48.8885C45.0189 48.8885 45.0103 48.8898 45.0012 48.8898C44.9907 48.8898 44.9808 48.8885 44.9703 48.8885C41.515 48.8885 39.3621 51.3366 36.3478 51.3366C33.9383 51.3366 32.6044 48.6713 31.8163 46.4548L31.1346 42.1845V47.2947C31.1346 47.2947 32.2789 53.3123 34.4771 54.7663C36.267 56.3569 42.1128 59.0812 44.9703 59.0812C44.9808 59.0812 44.9907 59.0799 45.0012 59.0799C45.0103 59.0799 45.0202 59.0812 45.0294 59.0812H45.0307C47.8896 59.0812 53.734 56.3569 55.5227 54.7663C57.7208 53.3123 58.8664 47.2947 58.8664 47.2947V42.1845L58.1847 46.4548Z" fill="#303030"/>
<path d="M47.3851 52.7296C47.3851 52.7296 47.0367 51.1765 44.9999 51.1765C43.1391 51.1765 42.6148 52.7296 42.6148 52.7296H47.3851Z" fill="white"/>
<path d="M53.8994 24.6946C53.8994 24.6946 52.6783 28.5338 43.9533 32.3723C35.2284 36.2108 31.3905 37.4326 32.0887 41.2711C28.3394 34.4254 29.7331 15.534 44.3018 15.534C55.7307 15.534 55.2944 22.2517 53.8994 24.6946Z" fill="#303030"/>
<path d="M59.5752 34.2043C59.5752 34.2043 54.509 25.3055 50.9323 24.8698C52.5038 19.7223 54.6068 20.0713 54.6068 20.0713C54.6068 20.0713 60.2826 21.1133 59.5752 34.2043Z" fill="#303030"/>
<path d="M69.1957 71.0738C67.2929 67.4735 59.3665 64.6586 53.0969 62.9381C53.1468 62.0635 51.5772 67.2189 51.5772 67.2189L45.2079 81.5021L39.25 68.1834L36.9036 62.9381C30.634 64.6586 22.7076 67.4735 20.8047 71.0738C18.3973 79.6295 16.3842 90.5 16.3842 90.5H44.9999H73.6156C73.6156 90.5 72.256 78.844 69.1957 71.0738Z" fill="#1F3A4D"/>
</g>
</g>
<defs>
<clipPath id="clip0_269_5">
<rect y="0.5" width="90" height="90" rx="43.7143" fill="white"/>
</clipPath>
<clipPath id="clip1_269_5">
<rect width="95.1429" height="95.1429" fill="white" transform="translate(-2.57147 -4.64285)"/>
</clipPath>
</defs>
</svg>
